<svg xmlns="http://www.w3.org/2000/svg" width="512" height="512" viewBox="0 0 512 512"><path d="M462,44H414.333V30a30,30,0,0,0-60,0V44h-168V30a30,30,0,0,0-60,0V44.37a9.978,9.978,0,0,0-2.666-.37H83.823a50.057,50.057,0,0,0-50,50V264.333a10,10,0,0,0,20,0V147h360.51a10,10,0,0,0,0-20H53.823V94a30.034,30.034,0,0,1,30-30h39.844a10.019,10.019,0,0,0,2.666-.37V76.5a30,30,0,0,0,60,0V64h168V76.5a30,30,0,0,0,60,0V64H462a30.034,30.034,0,0,1,30,30V473.994a18.006,18.006,0,0,1-36.012,0V448.125a10,10,0,0,0-10-10H329.667a10,10,0,0,0,0,20H435.988v15.869A37.775,37.775,0,0,0,440.533,492H38a18.021,18.021,0,0,1-18-18V458.125H243.825a10,10,0,0,0,0-20H143.909a82,82,0,1,0-106.86,0H10a10,10,0,0,0-10,10V474a38.043,38.043,0,0,0,38,38H473.994A38.049,38.049,0,0,0,512,473.994V94A50.057,50.057,0,0,0,462,44ZM166.333,76.5a10,10,0,0,1-20,0V30a10,10,0,0,1,20,0Zm228,0a10,10,0,0,1-20,0V30a10,10,0,0,1,20,0ZM28.479,376a62,62,0,1,1,62,62A62.07,62.07,0,0,1,28.479,376Z" fill="#2bc48a"/><path d="M468.309,129.93A9.992,9.992,0,1,0,471.24,137,10.072,10.072,0,0,0,468.309,129.93Z" fill="#2bc48a"/><path d="M298.649,441.05a10,10,0,1,0,2.931,7.07A10.062,10.062,0,0,0,298.649,441.05Z" fill="#2bc48a"/><path d="M226.245,304a38,38,0,1,0,38,38A38.043,38.043,0,0,0,226.245,304Zm0,56a18,18,0,1,1,18-18A18.021,18.021,0,0,1,226.245,360Z" fill="#2bc48a"/><path d="M319.578,304a38,38,0,1,0,38,38A38.043,38.043,0,0,0,319.578,304Zm0,56a18,18,0,1,1,18-18A18.021,18.021,0,0,1,319.578,360Z" fill="#2bc48a"/><path d="M412.912,304a38,38,0,1,0,38,38A38.043,38.043,0,0,0,412.912,304Zm0,56a18,18,0,1,1,18-18A18.021,18.021,0,0,1,412.912,360Z" fill="#2bc48a"/><path d="M132.912,200a38,38,0,1,0,38,38A38.043,38.043,0,0,0,132.912,200Zm0,56a18,18,0,1,1,18-18A18.021,18.021,0,0,1,132.912,256Z" fill="#2bc48a"/><path d="M319.578,200a38,38,0,1,0,38,38A38.043,38.043,0,0,0,319.578,200Zm0,56a18,18,0,1,1,18-18A18.021,18.021,0,0,1,319.578,256Z" fill="#2bc48a"/><path d="M412.912,200a38,38,0,1,0,38,38A38.043,38.043,0,0,0,412.912,200Zm0,56a18,18,0,1,1,18-18A18.021,18.021,0,0,1,412.912,256Z" fill="#2bc48a"/><path d="M226.245,200a38,38,0,1,0,38,38A38.043,38.043,0,0,0,226.245,200Zm0,56a18,18,0,1,1,18-18A18.021,18.021,0,0,1,226.245,256Z" fill="#2bc48a"/><path d="M126.1,351.629a10,10,0,0,0-14.143,0L79.395,384.2,68.266,373.067A10,10,0,0,0,54.123,387.21l18.2,18.2a10,10,0,0,0,14.142,0L126.1,365.771A10,10,0,0,0,126.1,351.629Z" fill="#2bc48a"/></svg>