<svg id="Layer_1" data-name="Layer 1" xmlns="http://www.w3.org/2000/svg" xmlns:xlink="http://www.w3.org/1999/xlink" viewBox="0 0 800 800"><defs><style>.cls-1{fill:url(#radial-gradient);}.cls-2{fill:url(#linear-gradient);}</style><radialGradient id="radial-gradient" cx="400" cy="474.28" r="295.13" gradientUnits="userSpaceOnUse"><stop offset="0" stop-color="#2bc48a"/><stop offset="1" stop-color="#022e43"/></radialGradient><linearGradient id="linear-gradient" x1="419.33" y1="403.69" x2="419.33" y2="134.51" gradientUnits="userSpaceOnUse"><stop offset="0" stop-color="#2bc48a"/><stop offset="0.72" stop-color="#022e43"/></linearGradient></defs><title>PDP</title><path class="cls-1" d="M629.5,283.07h-3.33c-45.78.49-86.42,24-112.34,60.29a160.3,160.3,0,0,0-29.49,89.76c0,1.26,0,2.51,0,3.77,0,50-37.75,90.46-84.3,90.46s-84.3-40.5-84.3-90.46c0-1.29,0-2.57,0-3.85a160.37,160.37,0,0,0-29.49-89.68c-25.92-36.28-66.57-59.8-112.35-60.29H170.5C92.19,284.14,29,352.59,29,436.89v228.6l58.13-33.34V560.6a136.43,136.43,0,0,0,85.23,30.11c41.28,0,78.5-18.72,104.65-48.7a173.39,173.39,0,0,1-29.54-64c-13.94,29.3-42.35,49.38-75.11,49.38-46.56,0-84.3-40.51-84.3-90.46s37.74-90.46,84.3-90.46,84.28,40.5,84.28,90.46c0,1.88-.05,3.75-.17,5.6a3,3,0,0,0,.45-.13C259.6,524.68,322.64,590.53,400,590.53s140.32-65.78,143.07-148l.46,0c-.12-1.87-.17-3.75-.17-5.65,0-50,37.74-90.46,84.28-90.46s84.3,40.5,84.3,90.46-37.74,90.46-84.3,90.46c-32.76,0-61.16-20.07-75.11-49.37-9.89,42.44-34.76,78.51-68.23,101.36v86.15l58.13-33.34V560.59a136.37,136.37,0,0,0,85.21,30.12c79.17,0,143.36-68.87,143.36-153.82C771,352.59,707.81,284.14,629.5,283.07Z"/><path class="cls-2" d="M542.58,167.51l.95,127A162.3,162.3,0,0,0,504.86,332,171.53,171.53,0,0,0,486,364.56a174.9,174.9,0,0,0-9.1,26c-14.71-26.43-41.64-44.13-72.41-44.13-35.62,0-66.09,23.72-78.43,57.26A173.83,173.83,0,0,0,295.13,332C321.3,301.89,358.6,283.06,400,283.06c32.25,0,62,11.44,86,30.74L485,134.51Z"/></svg>