<svg xmlns="http://www.w3.org/2000/svg" width="362.889" height="727.778" viewBox="0 0 362.889 727.778"><g transform="translate(-65.111)"><path d="M676,252.139h-4V142.593a63.4,63.4,0,0,0-63.4-63.4H376.513a63.4,63.4,0,0,0-63.4,63.4V743.568a63.4,63.4,0,0,0,63.4,63.4H608.6a63.4,63.4,0,0,0,63.4-63.4V330.115h4Z" transform="translate(-248 -79.191)" fill="#022e43"/><path d="M611.157,95.687H580.862a22.495,22.495,0,0,1-20.827,30.991H427.076a22.495,22.495,0,0,1-20.827-30.991h-28.3a47.348,47.348,0,0,0-47.348,47.348V743.127a47.348,47.348,0,0,0,47.348,47.348h233.2A47.348,47.348,0,0,0,658.5,743.127V143.034a47.348,47.348,0,0,0-47.348-47.348Z" transform="translate(-248 -79.191)" fill="#fff"/></g></svg>