<svg xmlns="http://www.w3.org/2000/svg" width="512" height="512" viewBox="0 0 512 512"><path d="M404.619,275.14V10a10,10,0,0,0-10-10H10A10,10,0,0,0,0,10V448a10,10,0,0,0,10,10H293.83A118.683,118.683,0,1,0,404.619,275.14ZM46,438H20V20H46ZM293.247,329.49c-.2.3-.383.613-.575.92-.3.484-.61.967-.907,1.456h-71.99a10,10,0,1,0,0,20h62.287l-.071.2c-.163.439-.321.88-.479,1.321s-.323.9-.48,1.359-.3.883-.446,1.326q-.228.69-.45,1.382c-.141.444-.278.889-.414,1.334q-.213.7-.419,1.4c-.13.445-.256.892-.381,1.339q-.2.711-.387,1.426-.177.67-.348,1.344-.183.725-.356,1.454-.16.67-.313,1.342-.166.738-.323,1.479c-.1.447-.19.895-.28,1.344-.1.5-.2,1-.289,1.505-.084.447-.168.893-.246,1.342-.014.082-.031.163-.045.245H256.106a10,10,0,1,0,0,20H274.6c0,.1,0,.193,0,.29q0,1.477.037,2.952c.013.52.037,1.037.057,1.556.017.449.029.9.051,1.348.034.7.08,1.388.126,2.081.017.262.031.525.05.787.059.806.13,1.608.2,2.41.013.143.024.285.038.428.085.879.183,1.755.287,2.628.008.064.014.128.022.192q.168,1.389.37,2.768l.006.041q.412,2.835.96,5.626s0,.006,0,.009q.267,1.368.567,2.724l.027.122q.283,1.283.6,2.555c.026.108.052.216.079.324q.287,1.155.6,2.3.084.312.169.622.27.981.557,1.957.148.508.3,1.015.231.762.472,1.52t.492,1.512q.164.492.332.983.36,1.051.74,2.1c.044.121.088.243.133.364.465,1.266.943,2.528,1.451,3.779H66V20H384.619V274.912l-.23.02c-.419.031-.836.071-1.254.106-.559.048-1.119.094-1.677.149-.439.044-.875.1-1.313.143-.533.059-1.067.117-1.6.183-.451.056-.9.119-1.35.181-.513.07-1.026.139-1.537.216-.46.069-.918.144-1.377.218-.5.081-.994.161-1.49.248-.464.081-.926.168-1.388.254-.485.091-.97.182-1.452.279s-.935.192-1.4.292-.945.2-1.416.309-.939.216-1.408.328-.923.223-1.382.338-.942.241-1.412.365q-.68.18-1.355.367-.707.2-1.409.4c-.444.129-.887.262-1.329.4q-.707.215-1.41.437c-.434.138-.866.28-1.3.422-.471.156-.941.312-1.409.473-.424.146-.846.3-1.268.448-.471.168-.943.337-1.411.512-.412.153-.822.311-1.232.469-.473.182-.946.363-1.416.551-.4.16-.8.325-1.2.489-.474.2-.949.39-1.421.592-.387.165-.771.337-1.155.506-.477.21-.954.418-1.427.634-.368.168-.733.343-1.1.514-.486.227-.972.453-1.454.687-.338.164-.672.335-1.009.5-.5.25-1.008.5-1.508.756-.287.148-.57.3-.856.452-.544.286-1.089.57-1.628.864l-.272.152q-3.145,1.727-6.171,3.637c-.225.142-.453.28-.678.424-.5.319-.991.647-1.485.973-.283.187-.568.37-.85.56-.47.316-.935.641-1.4.964-.3.207-.6.411-.895.621-.45.319-.9.645-1.341.969-.306.223-.613.443-.917.669-.436.324-.867.655-1.3.985-.306.234-.612.466-.916.7-.423.33-.842.666-1.26,1-.307.246-.614.491-.918.74-.411.336-.817.677-1.224,1.019-.3.255-.607.51-.908.768q-.6.516-1.193,1.04c-.3.265-.6.531-.9.8q-.584.523-1.158,1.057c-.3.275-.6.552-.891.83q-.567.534-1.125,1.075c-.293.284-.586.569-.876.856q-.553.546-1.1,1.1-.43.436-.857.878-.539.557-1.071,1.121c-.281.3-.56.6-.838.9q-.527.57-1.047,1.146c-.273.3-.543.61-.814.917q-.514.584-1.023,1.173c-.266.31-.528.622-.791.935-.333.4-.667.793-.995,1.194-.26.317-.515.638-.772.958-.324.4-.648.808-.967,1.216-.252.323-.5.65-.749.976-.315.411-.63.822-.939,1.238-.244.329-.483.661-.724.992-.306.42-.614.84-.914,1.264-.234.331-.462.666-.693,1-.3.431-.6.86-.892,1.3-.222.33-.437.664-.656,1C293.831,328.6,293.535,329.04,293.247,329.49ZM393.3,492a98.863,98.863,0,0,1-91.8-62.448l-.066-.165c-.256-.649-.5-1.3-.746-1.958-.109-.3-.214-.594-.321-.891-.19-.529-.381-1.059-.562-1.592q-.429-1.268-.824-2.548c-.078-.252-.151-.507-.227-.76-.224-.749-.442-1.5-.648-2.254-.056-.2-.112-.408-.166-.613q-1.2-4.509-1.978-9.124c-.013-.076-.025-.151-.038-.227q-.76-4.608-1.083-9.291c-.016-.234-.03-.468-.045-.7q-.072-1.168-.116-2.339c-.01-.264-.022-.528-.03-.792-.03-1-.049-2-.049-3a98.813,98.813,0,0,1,98.7-98.7c.3,0,.6.009.894.011l.3.005h.017A98.7,98.7,0,0,1,393.3,492Z" fill="#2bc48a"/><path d="M393.3,310.967A82.332,82.332,0,1,0,475.631,393.3,82.425,82.425,0,0,0,393.3,310.967Zm0,144.663A62.332,62.332,0,1,1,455.631,393.3,62.4,62.4,0,0,1,393.3,455.63Z" fill="#2bc48a"/><path d="M431.83,383.3H403.3V351.246a10,10,0,0,0-20,0V393.3a10,10,0,0,0,10,10H431.83a10,10,0,0,0,0-20Z" fill="#2bc48a"/><path d="M366.97,73.04a10.1,10.1,0,0,0-.57-1.87,9.869,9.869,0,0,0-.92-1.73,10.214,10.214,0,0,0-1.25-1.52,9.571,9.571,0,0,0-1.52-1.24,10.146,10.146,0,0,0-1.72-.92,10.583,10.583,0,0,0-1.87-.57,9.9,9.9,0,0,0-3.91,0,10.1,10.1,0,0,0-1.87.57,9.87,9.87,0,0,0-1.73.92,9.718,9.718,0,0,0-2.76,2.76,9.871,9.871,0,0,0-.92,1.73,10.1,10.1,0,0,0-.57,1.87,9.851,9.851,0,0,0-.2,1.95,10.028,10.028,0,0,0,.2,1.96,10.585,10.585,0,0,0,.57,1.87,10.145,10.145,0,0,0,.92,1.72,9.57,9.57,0,0,0,1.24,1.52,10.215,10.215,0,0,0,1.52,1.25,9.869,9.869,0,0,0,1.73.92,10.1,10.1,0,0,0,1.87.57,9.84,9.84,0,0,0,1.95.19,10.013,10.013,0,0,0,1.96-.19,10.583,10.583,0,0,0,1.87-.57,10.02,10.02,0,0,0,5.41-5.41,10.584,10.584,0,0,0,.57-1.87,10.013,10.013,0,0,0,.19-1.96A9.84,9.84,0,0,0,366.97,73.04Z" fill="#2bc48a"/><path d="M320.83,64.991H219.773a10,10,0,0,0,0,20H320.83a10,10,0,0,0,0-20Z" fill="#2bc48a"/><path d="M229.58,114.18a10.1,10.1,0,0,0-.57-1.87,9.869,9.869,0,0,0-.92-1.73,10.213,10.213,0,0,0-1.25-1.52,9.571,9.571,0,0,0-1.52-1.24,10.145,10.145,0,0,0-1.72-.92,10.584,10.584,0,0,0-1.87-.57,9.9,9.9,0,0,0-3.91,0,10.1,10.1,0,0,0-1.87.57,10.237,10.237,0,0,0-1.73.92,9.718,9.718,0,0,0-2.76,2.76,9.834,9.834,0,0,0-.92,1.73,10.1,10.1,0,0,0-.57,1.87,9.851,9.851,0,0,0-.2,1.95,10.058,10.058,0,0,0,2.93,7.07,9.861,9.861,0,0,0,3.25,2.17,10.1,10.1,0,0,0,1.87.57,9.84,9.84,0,0,0,1.95.19,10,10,0,0,0,10-10A9.837,9.837,0,0,0,229.58,114.18Z" fill="#2bc48a"/><path d="M357.163,106.133H256.106a10,10,0,0,0,0,20H357.163a10,10,0,0,0,0-20Z" fill="#2bc48a"/><path d="M136,41.552a54.01,54.01,0,1,0,54.01,54.01A54.071,54.071,0,0,0,136,41.552Zm0,88.02a34.01,34.01,0,1,1,34.01-34.01A34.048,34.048,0,0,1,136,129.572Z" fill="#2bc48a"/><path d="M158.122,79.815a10,10,0,0,0-14.142,0L131.334,92.463l-6.606-2.7a10,10,0,1,0-7.569,18.512l12.76,5.217a10,10,0,0,0,10.855-2.185l17.348-17.348A10,10,0,0,0,158.122,79.815Z" fill="#2bc48a"/><path d="M366.97,206.48a10.437,10.437,0,0,0-.57-1.88,9.9,9.9,0,0,0-5.41-5.4,10.623,10.623,0,0,0-1.87-.58,10.286,10.286,0,0,0-3.91,0,10.128,10.128,0,0,0-1.87.58,9.827,9.827,0,0,0-1.73.91,10.214,10.214,0,0,0-1.52,1.25,9.57,9.57,0,0,0-1.24,1.52,10.146,10.146,0,0,0-.92,1.72,10.437,10.437,0,0,0-.57,1.88,9.606,9.606,0,0,0,0,3.9,10.1,10.1,0,0,0,.57,1.87,9.868,9.868,0,0,0,.92,1.73,9.718,9.718,0,0,0,2.76,2.76,9.869,9.869,0,0,0,1.73.92,10.1,10.1,0,0,0,1.87.57,9.851,9.851,0,0,0,1.95.2,10.029,10.029,0,0,0,1.96-.2,10.584,10.584,0,0,0,1.87-.57,10.146,10.146,0,0,0,1.72-.92,9.57,9.57,0,0,0,1.52-1.24,10.215,10.215,0,0,0,1.25-1.52,9.87,9.87,0,0,0,.92-1.73,10.1,10.1,0,0,0,.57-1.87,10.1,10.1,0,0,0,0-3.9Z" fill="#2bc48a"/><path d="M320.83,198.429H219.773a10,10,0,0,0,0,20H320.83a10,10,0,0,0,0-20Z" fill="#2bc48a"/><path d="M226.84,242.5a10.069,10.069,0,0,0-9.02-2.73,9.391,9.391,0,0,0-1.87.57,10.238,10.238,0,0,0-1.73.92,9.57,9.57,0,0,0-1.52,1.24,10.076,10.076,0,0,0-2.93,7.07,9.852,9.852,0,0,0,.2,1.95,10.451,10.451,0,0,0,.57,1.879,10.146,10.146,0,0,0,.92,1.72,9.569,9.569,0,0,0,1.24,1.52,10.052,10.052,0,0,0,5.12,2.741,9.84,9.84,0,0,0,1.95.19,10.058,10.058,0,0,0,7.07-2.93,9.958,9.958,0,0,0,2.17-3.24,10.437,10.437,0,0,0,.57-1.88,9.84,9.84,0,0,0,.19-1.95A10.033,10.033,0,0,0,226.84,242.5Z" fill="#2bc48a"/><path d="M357.163,239.571H256.106a10,10,0,1,0,0,20H357.163a10,10,0,1,0,0-20Z" fill="#2bc48a"/><path d="M136,174.99A54.01,54.01,0,1,0,190.008,229,54.071,54.071,0,0,0,136,174.99Zm0,88.02A34.01,34.01,0,1,1,170.008,229,34.048,34.048,0,0,1,136,263.01Z" fill="#2bc48a"/><path d="M158.122,213.253a10,10,0,0,0-14.142,0L131.334,225.9l-6.606-2.7a10,10,0,1,0-7.569,18.512l12.76,5.217a10,10,0,0,0,10.855-2.185L158.122,227.4A10,10,0,0,0,158.122,213.253Z" fill="#2bc48a"/><path d="M229.58,381.06a10.437,10.437,0,0,0-.57-1.88,9.9,9.9,0,0,0-5.41-5.4,9.96,9.96,0,0,0-5.78-.57,9.391,9.391,0,0,0-1.87.57,9.632,9.632,0,0,0-3.25,2.16,9.57,9.57,0,0,0-1.24,1.52,10.146,10.146,0,0,0-.92,1.72,10.436,10.436,0,0,0-.57,1.88,9.851,9.851,0,0,0-.2,1.95,10.076,10.076,0,0,0,2.93,7.07,9.57,9.57,0,0,0,1.52,1.24,10.239,10.239,0,0,0,1.73.92,10.1,10.1,0,0,0,1.87.57,9.851,9.851,0,0,0,1.95.2,10,10,0,0,0,10-10A9.837,9.837,0,0,0,229.58,381.06Z" fill="#2bc48a"/><path d="M136,308.428a54.01,54.01,0,1,0,54.01,54.01A54.071,54.071,0,0,0,136,308.428Zm0,88.02a34.01,34.01,0,1,1,34.01-34.01A34.048,34.048,0,0,1,136,396.448Z" fill="#2bc48a"/><path d="M158.122,346.693a10,10,0,0,0-14.142,0L131.334,359.34l-6.606-2.7a10,10,0,0,0-7.569,18.513l12.76,5.216a10,10,0,0,0,10.855-2.185l17.348-17.348A10,10,0,0,0,158.122,346.693Z" fill="#2bc48a"/></svg>