<?xml version="1.0"?>
<svg xmlns="http://www.w3.org/2000/svg" id="Capa_1" enable-background="new 0 0 512 512" height="512px" viewBox="0 0 512 512" width="512px" class=""><g><g><path d="m504.5 388.782h-16.548v-265.048c0-21.816-17.749-39.564-39.564-39.564h-40.081c-4.142 0-7.5 3.358-7.5 7.5s3.358 7.5 7.5 7.5h40.081c13.545 0 24.564 11.02 24.564 24.564v265.048h-433.904v-265.048c0-13.545 11.02-24.564 24.564-24.564h40.081c4.142 0 7.5-3.358 7.5-7.5s-3.358-7.5-7.5-7.5h-40.08c-21.816 0-39.564 17.749-39.564 39.564v265.048h-16.549c-4.142 0-7.5 3.358-7.5 7.5 0 26.236 21.345 47.581 47.581 47.581h416.839c26.236 0 47.581-21.345 47.581-47.581-.001-4.142-3.359-7.5-7.501-7.5zm-40.081 40.081h-416.838c-15.385 0-28.313-10.719-31.709-25.081h480.258c-3.397 14.362-16.326 25.081-31.711 25.081z" data-original="#000000" class="active-path" data-old_color="#000000" fill="#DE3C4B"/><path d="m71.113 356.718v-225.484h32.578c4.142 0 7.5-3.358 7.5-7.5s-3.358-7.5-7.5-7.5h-40.078c-4.142 0-7.5 3.358-7.5 7.5v240.484c0 4.142 3.358 7.5 7.5 7.5h384.774c4.142 0 7.5-3.358 7.5-7.5v-240.484c0-4.142-3.358-7.5-7.5-7.5h-40.079c-4.142 0-7.5 3.358-7.5 7.5s3.358 7.5 7.5 7.5h32.579v225.484z" data-original="#000000" class="active-path" data-old_color="#000000" fill="#DE3C4B"/><path d="m159.807 323.621h192.387c17.396 0 31.548-14.152 31.548-31.548v-176.355c0-17.396-14.152-31.548-31.548-31.548h-.516v-8.532c0-4.142-3.358-7.5-7.5-7.5s-7.5 3.358-7.5 7.5v8.532h-161.355v-8.532c0-4.142-3.358-7.5-7.5-7.5s-7.5 3.358-7.5 7.5v8.532h-.516c-17.396 0-31.548 14.152-31.548 31.548v176.355c-.001 17.396 14.152 31.548 31.548 31.548zm0-224.452h192.387c9.125 0 16.548 7.423 16.548 16.548v.516h-24.566c-4.142 0-7.5 3.358-7.5 7.5s3.358 7.5 7.5 7.5h24.566v160.839c0 9.125-7.423 16.548-16.548 16.548h-192.387c-9.125 0-16.548-7.423-16.548-16.548v-160.838h168.851c4.142 0 7.5-3.358 7.5-7.5s-3.358-7.5-7.5-7.5h-168.852v-.516c0-9.125 7.424-16.549 16.549-16.549z" data-original="#000000" class="active-path" data-old_color="#000000" fill="#DE3C4B"/><path d="m272.032 164.331h-32.064c-4.142 0-7.5 3.358-7.5 7.5s3.358 7.5 7.5 7.5h32.064c4.142 0 7.5-3.358 7.5-7.5s-3.358-7.5-7.5-7.5z" data-original="#000000" class="active-path" data-old_color="#000000" fill="#DE3C4B"/><path d="m296.597 171.831c0 4.142 3.358 7.5 7.5 7.5h32.064c4.142 0 7.5-3.358 7.5-7.5s-3.358-7.5-7.5-7.5h-32.064c-4.142 0-7.5 3.357-7.5 7.5z" data-original="#000000" class="active-path" data-old_color="#000000" fill="#DE3C4B"/><path d="m207.903 164.331h-32.064c-4.142 0-7.5 3.358-7.5 7.5s3.358 7.5 7.5 7.5h32.064c4.142 0 7.5-3.358 7.5-7.5s-3.358-7.5-7.5-7.5z" data-original="#000000" class="active-path" data-old_color="#000000" fill="#DE3C4B"/><path d="m272.032 196.395h-32.064c-4.142 0-7.5 3.358-7.5 7.5s3.358 7.5 7.5 7.5h32.064c4.142 0 7.5-3.358 7.5-7.5s-3.358-7.5-7.5-7.5z" data-original="#000000" class="active-path" data-old_color="#000000" fill="#DE3C4B"/><path d="m336.161 196.395h-32.064c-4.142 0-7.5 3.358-7.5 7.5s3.358 7.5 7.5 7.5h32.064c4.142 0 7.5-3.358 7.5-7.5s-3.358-7.5-7.5-7.5z" data-original="#000000" class="active-path" data-old_color="#000000" fill="#DE3C4B"/><path d="m207.903 196.395h-32.064c-4.142 0-7.5 3.358-7.5 7.5s3.358 7.5 7.5 7.5h32.064c4.142 0 7.5-3.358 7.5-7.5s-3.358-7.5-7.5-7.5z" data-original="#000000" class="active-path" data-old_color="#000000" fill="#DE3C4B"/><path d="m272.032 228.459h-32.064c-4.142 0-7.5 3.358-7.5 7.5s3.358 7.5 7.5 7.5h32.064c4.142 0 7.5-3.358 7.5-7.5s-3.358-7.5-7.5-7.5z" data-original="#000000" class="active-path" data-old_color="#000000" fill="#DE3C4B"/><path d="m336.161 228.459h-32.064c-4.142 0-7.5 3.358-7.5 7.5s3.358 7.5 7.5 7.5h32.064c4.142 0 7.5-3.358 7.5-7.5s-3.358-7.5-7.5-7.5z" data-original="#000000" class="active-path" data-old_color="#000000" fill="#DE3C4B"/><path d="m207.903 228.459h-32.064c-4.142 0-7.5 3.358-7.5 7.5s3.358 7.5 7.5 7.5h32.064c4.142 0 7.5-3.358 7.5-7.5s-3.358-7.5-7.5-7.5z" data-original="#000000" class="active-path" data-old_color="#000000" fill="#DE3C4B"/><path d="m272.032 260.524h-32.064c-4.142 0-7.5 3.358-7.5 7.5s3.358 7.5 7.5 7.5h32.064c4.142 0 7.5-3.358 7.5-7.5s-3.358-7.5-7.5-7.5z" data-original="#000000" class="active-path" data-old_color="#000000" fill="#DE3C4B"/><path d="m336.161 260.524h-32.064c-4.142 0-7.5 3.358-7.5 7.5s3.358 7.5 7.5 7.5h32.064c4.142 0 7.5-3.358 7.5-7.5s-3.358-7.5-7.5-7.5z" data-original="#000000" class="active-path" data-old_color="#000000" fill="#DE3C4B"/><path d="m207.903 260.524h-32.064c-4.142 0-7.5 3.358-7.5 7.5s3.358 7.5 7.5 7.5h32.064c4.142 0 7.5-3.358 7.5-7.5s-3.358-7.5-7.5-7.5z" data-original="#000000" class="active-path" data-old_color="#000000" fill="#DE3C4B"/></g></g> </svg>
