<?xml version="1.0"?>
<svg xmlns="http://www.w3.org/2000/svg" xmlns:xlink="http://www.w3.org/1999/xlink" version="1.1" id="Capa_1" x="0px" y="0px" viewBox="0 0 512 512" style="enable-background:new 0 0 512 512;" xml:space="preserve" width="512px" height="512px" class=""><g><g>
	<g>
		<path d="M404.619,275.14V10c0-5.523-4.477-10-10-10H10C4.477,0,0,4.477,0,10v438c0,5.523,4.477,10,10,10h283.83    c21.202,32.484,57.867,54,99.468,54C458.751,512,512,458.751,512,393.299C512,331.665,464.78,280.859,404.619,275.14z M46,438H20    V20h26V438z M293.247,329.49c-0.195,0.304-0.383,0.613-0.575,0.92c-0.304,0.484-0.61,0.967-0.907,1.456h-71.99    c-5.523,0-10,4.477-10,10s4.477,10,10,10h62.287c-0.024,0.065-0.047,0.13-0.071,0.195c-0.163,0.439-0.321,0.88-0.479,1.321    c-0.162,0.452-0.323,0.905-0.48,1.359c-0.152,0.441-0.299,0.883-0.446,1.326c-0.152,0.46-0.303,0.92-0.45,1.382    c-0.141,0.444-0.278,0.889-0.414,1.334c-0.142,0.467-0.282,0.935-0.419,1.405c-0.13,0.445-0.256,0.892-0.381,1.339    c-0.132,0.474-0.261,0.95-0.387,1.426c-0.118,0.447-0.234,0.895-0.348,1.344c-0.122,0.483-0.24,0.968-0.356,1.454    c-0.107,0.447-0.212,0.894-0.313,1.342c-0.111,0.492-0.218,0.985-0.323,1.479c-0.095,0.447-0.19,0.895-0.28,1.344    c-0.1,0.5-0.195,1.002-0.289,1.505c-0.084,0.447-0.168,0.893-0.246,1.342c-0.014,0.082-0.031,0.163-0.045,0.245h-20.229    c-5.523,0-10,4.477-10,10s4.477,10,10,10h18.495c0,0.097-0.004,0.193-0.004,0.29c0,0.985,0.013,1.969,0.037,2.952    c0.013,0.52,0.037,1.037,0.057,1.556c0.017,0.449,0.029,0.899,0.051,1.348c0.034,0.696,0.08,1.388,0.126,2.081    c0.017,0.262,0.031,0.525,0.05,0.787c0.059,0.806,0.13,1.608,0.204,2.41c0.013,0.143,0.024,0.285,0.038,0.428    c0.085,0.879,0.183,1.755,0.287,2.628c0.008,0.064,0.014,0.128,0.022,0.192c0.112,0.926,0.236,1.849,0.37,2.768    c0.002,0.014,0.004,0.027,0.006,0.041c0.275,1.89,0.596,3.765,0.96,5.626c0.001,0.003,0.001,0.006,0.002,0.009    c0.178,0.912,0.367,1.82,0.567,2.724c0.009,0.04,0.018,0.081,0.027,0.122c0.189,0.855,0.388,1.707,0.596,2.555    c0.026,0.108,0.052,0.216,0.079,0.324c0.191,0.77,0.389,1.537,0.595,2.301c0.056,0.208,0.112,0.415,0.169,0.622    c0.18,0.654,0.366,1.307,0.557,1.957c0.099,0.339,0.2,0.677,0.303,1.015c0.154,0.508,0.311,1.015,0.472,1.52    c0.16,0.505,0.325,1.009,0.492,1.512c0.109,0.328,0.219,0.656,0.332,0.983c0.24,0.701,0.487,1.4,0.74,2.098    c0.044,0.121,0.088,0.243,0.133,0.364c0.465,1.266,0.943,2.528,1.451,3.779H66V20h318.619v254.912    c-0.077,0.006-0.154,0.014-0.23,0.02c-0.419,0.031-0.836,0.071-1.254,0.106c-0.559,0.048-1.119,0.094-1.677,0.149    c-0.439,0.044-0.875,0.095-1.313,0.143c-0.533,0.059-1.067,0.117-1.598,0.183c-0.451,0.056-0.9,0.119-1.35,0.181    c-0.513,0.07-1.026,0.139-1.537,0.216c-0.46,0.069-0.918,0.144-1.377,0.218c-0.497,0.081-0.994,0.161-1.49,0.248    c-0.464,0.081-0.926,0.168-1.388,0.254c-0.485,0.091-0.97,0.182-1.452,0.279c-0.468,0.094-0.935,0.192-1.401,0.292    c-0.473,0.1-0.945,0.203-1.416,0.309c-0.471,0.106-0.939,0.216-1.408,0.328c-0.462,0.11-0.923,0.223-1.382,0.338    c-0.472,0.119-0.942,0.241-1.412,0.365c-0.453,0.12-0.904,0.242-1.355,0.367c-0.471,0.131-0.94,0.264-1.409,0.4    c-0.444,0.129-0.887,0.262-1.329,0.396c-0.471,0.143-0.941,0.288-1.41,0.437c-0.434,0.138-0.866,0.28-1.298,0.422    c-0.471,0.156-0.941,0.312-1.409,0.473c-0.424,0.146-0.846,0.297-1.268,0.448c-0.471,0.168-0.943,0.337-1.411,0.512    c-0.412,0.153-0.822,0.311-1.232,0.469c-0.473,0.182-0.946,0.363-1.416,0.551c-0.4,0.16-0.797,0.325-1.195,0.489    c-0.474,0.196-0.949,0.39-1.421,0.592c-0.387,0.165-0.771,0.337-1.155,0.506c-0.477,0.21-0.954,0.418-1.427,0.634    c-0.368,0.168-0.733,0.343-1.1,0.514c-0.486,0.227-0.972,0.453-1.454,0.687c-0.338,0.164-0.672,0.335-1.009,0.502    c-0.503,0.25-1.008,0.499-1.508,0.756c-0.287,0.148-0.57,0.302-0.856,0.452c-0.544,0.286-1.089,0.57-1.628,0.864    c-0.091,0.05-0.181,0.102-0.272,0.152c-2.097,1.151-4.154,2.366-6.171,3.637c-0.225,0.142-0.453,0.28-0.678,0.424    c-0.499,0.319-0.991,0.647-1.485,0.973c-0.283,0.187-0.568,0.37-0.85,0.56c-0.47,0.316-0.935,0.641-1.4,0.964    c-0.298,0.207-0.598,0.411-0.895,0.621c-0.45,0.319-0.896,0.645-1.341,0.969c-0.306,0.223-0.613,0.443-0.917,0.669    c-0.436,0.324-0.867,0.655-1.299,0.985c-0.306,0.234-0.612,0.466-0.916,0.703c-0.423,0.33-0.842,0.666-1.26,1.001    c-0.307,0.246-0.614,0.491-0.918,0.74c-0.411,0.336-0.817,0.677-1.224,1.019c-0.303,0.255-0.607,0.51-0.908,0.768    c-0.4,0.344-0.797,0.691-1.193,1.04c-0.301,0.265-0.602,0.531-0.9,0.799c-0.389,0.349-0.774,0.702-1.158,1.057    c-0.298,0.275-0.596,0.552-0.891,0.83c-0.378,0.356-0.753,0.714-1.125,1.075c-0.293,0.284-0.586,0.569-0.876,0.856    c-0.369,0.364-0.736,0.73-1.1,1.099c-0.287,0.291-0.573,0.584-0.857,0.878c-0.359,0.371-0.717,0.745-1.071,1.121    c-0.281,0.298-0.56,0.599-0.838,0.9c-0.351,0.38-0.701,0.761-1.047,1.146c-0.273,0.304-0.543,0.61-0.814,0.917    c-0.343,0.389-0.685,0.779-1.023,1.173c-0.266,0.31-0.528,0.622-0.791,0.935c-0.333,0.397-0.667,0.793-0.995,1.194    c-0.26,0.317-0.515,0.638-0.772,0.958c-0.324,0.404-0.648,0.808-0.967,1.216c-0.252,0.323-0.5,0.65-0.749,0.976    c-0.315,0.411-0.63,0.822-0.939,1.238c-0.244,0.329-0.483,0.661-0.724,0.992c-0.306,0.42-0.614,0.84-0.914,1.264    c-0.234,0.331-0.462,0.666-0.693,0.999c-0.299,0.431-0.599,0.86-0.892,1.295c-0.222,0.33-0.437,0.664-0.656,0.996    C293.831,328.597,293.535,329.04,293.247,329.49z M393.299,492c-41.631,0-77.323-25.908-91.804-62.448    c-0.022-0.055-0.044-0.11-0.066-0.165c-0.256-0.649-0.503-1.302-0.746-1.958c-0.109-0.296-0.214-0.594-0.321-0.891    c-0.19-0.529-0.381-1.059-0.562-1.592c-0.286-0.845-0.561-1.694-0.824-2.548c-0.078-0.252-0.151-0.507-0.227-0.76    c-0.224-0.749-0.442-1.5-0.648-2.254c-0.056-0.204-0.112-0.408-0.166-0.613c-0.801-3.006-1.463-6.05-1.978-9.124    c-0.013-0.076-0.025-0.151-0.038-0.227c-0.507-3.072-0.868-6.173-1.083-9.291c-0.016-0.234-0.03-0.468-0.045-0.703    c-0.048-0.779-0.086-1.559-0.116-2.339c-0.01-0.264-0.022-0.528-0.03-0.792c-0.03-0.998-0.049-1.997-0.049-2.997    c0-54.424,44.277-98.701,98.701-98.701c0.299,0,0.596,0.009,0.894,0.011l0.304,0.005c0.006,0,0.011-0.001,0.017-0.001    C448.379,295.267,492,339.281,492,393.299C492,447.723,447.723,492,393.299,492z" data-original="#000000" class="active-path" data-old_color="#000000" fill="#DE3C4B"/>
	</g>
</g><g>
	<g>
		<path d="M393.299,310.967c-45.398,0-82.332,36.934-82.332,82.332s36.934,82.332,82.332,82.332s82.332-36.934,82.332-82.332    C475.63,347.901,438.697,310.967,393.299,310.967z M393.299,455.63c-34.37,0-62.332-27.962-62.332-62.332    s27.962-62.332,62.332-62.332s62.332,27.962,62.332,62.332C455.63,427.668,427.668,455.63,393.299,455.63z" data-original="#000000" class="active-path" data-old_color="#000000" fill="#DE3C4B"/>
	</g>
</g><g>
	<g>
		<path d="M431.83,383.299h-28.531v-32.053c0-5.523-4.477-10-10-10s-10,4.477-10,10v42.053c0,5.523,4.477,10,10,10h38.531    c5.523,0,10-4.477,10-10S437.353,383.299,431.83,383.299z" data-original="#000000" class="active-path" data-old_color="#000000" fill="#DE3C4B"/>
	</g>
</g><g>
	<g>
		<path d="M366.97,73.04c-0.13-0.64-0.32-1.27-0.57-1.87c-0.25-0.61-0.56-1.19-0.92-1.73c-0.37-0.55-0.79-1.06-1.25-1.52    c-0.46-0.46-0.97-0.88-1.52-1.24c-0.54-0.36-1.12-0.67-1.72-0.92c-0.61-0.25-1.24-0.44-1.87-0.57c-1.29-0.26-2.62-0.26-3.91,0    c-0.64,0.13-1.27,0.32-1.87,0.57c-0.61,0.25-1.19,0.56-1.73,0.92c-0.55,0.36-1.06,0.78-1.52,1.24c-0.46,0.46-0.88,0.97-1.24,1.52    c-0.36,0.54-0.67,1.12-0.92,1.73c-0.25,0.6-0.44,1.23-0.57,1.87c-0.13,0.64-0.2,1.3-0.2,1.95c0,0.65,0.07,1.31,0.2,1.96    c0.13,0.63,0.32,1.26,0.57,1.87c0.25,0.6,0.56,1.18,0.92,1.72c0.36,0.55,0.78,1.06,1.24,1.52c0.46,0.46,0.97,0.88,1.52,1.25    c0.54,0.36,1.12,0.67,1.73,0.92c0.6,0.25,1.23,0.44,1.87,0.57s1.3,0.19,1.95,0.19c0.65,0,1.31-0.06,1.96-0.19    c0.63-0.13,1.26-0.32,1.87-0.57c0.6-0.25,1.18-0.56,1.72-0.92c0.55-0.37,1.06-0.79,1.52-1.25c0.46-0.46,0.88-0.97,1.25-1.52    c0.36-0.54,0.67-1.12,0.92-1.72c0.25-0.61,0.44-1.24,0.57-1.87c0.13-0.65,0.19-1.31,0.19-1.96S367.1,73.68,366.97,73.04z" data-original="#000000" class="active-path" data-old_color="#000000" fill="#DE3C4B"/>
	</g>
</g><g>
	<g>
		<path d="M320.83,64.991H219.773c-5.523,0-10,4.477-10,10c0,5.523,4.478,10,10,10H320.83c5.523,0,10-4.477,10-10    C330.83,69.468,326.353,64.991,320.83,64.991z" data-original="#000000" class="active-path" data-old_color="#000000" fill="#DE3C4B"/>
	</g>
</g><g>
	<g>
		<path d="M229.58,114.18c-0.13-0.64-0.32-1.27-0.57-1.87c-0.25-0.61-0.56-1.19-0.92-1.73c-0.37-0.55-0.79-1.06-1.25-1.52    c-0.46-0.46-0.97-0.88-1.52-1.24c-0.54-0.36-1.12-0.67-1.72-0.92c-0.61-0.25-1.24-0.44-1.87-0.57c-1.29-0.26-2.62-0.26-3.91,0    c-0.64,0.13-1.27,0.32-1.87,0.57c-0.6,0.25-1.19,0.56-1.73,0.92c-0.55,0.36-1.06,0.78-1.52,1.24c-0.46,0.46-0.88,0.97-1.24,1.52    c-0.36,0.539-0.67,1.12-0.92,1.73c-0.25,0.6-0.44,1.23-0.57,1.87s-0.2,1.3-0.2,1.95c0,2.64,1.07,5.21,2.93,7.07    c0.46,0.46,0.97,0.88,1.52,1.25c0.54,0.36,1.13,0.67,1.73,0.92s1.23,0.44,1.87,0.57s1.3,0.19,1.95,0.19    c2.64,0,5.21-1.07,7.07-2.93c1.87-1.86,2.93-4.43,2.93-7.07C229.77,115.48,229.71,114.82,229.58,114.18z" data-original="#000000" class="active-path" data-old_color="#000000" fill="#DE3C4B"/>
	</g>
</g><g>
	<g>
		<path d="M357.163,106.133H256.106c-5.523,0-10,4.477-10,10s4.477,10,10,10h101.057c5.523,0,10-4.477,10-10    S362.686,106.133,357.163,106.133z" data-original="#000000" class="active-path" data-old_color="#000000" fill="#DE3C4B"/>
	</g>
</g><g>
	<g>
		<path d="M135.998,41.552c-29.781,0-54.01,24.229-54.01,54.01s24.229,54.01,54.01,54.01c29.781,0,54.01-24.228,54.01-54.01    C190.007,65.781,165.779,41.552,135.998,41.552z M135.998,129.572c-18.754,0-34.01-15.257-34.01-34.01s15.257-34.01,34.01-34.01    c18.753,0,34.01,15.257,34.01,34.01C170.007,114.315,154.751,129.572,135.998,129.572z" data-original="#000000" class="active-path" data-old_color="#000000" fill="#DE3C4B"/>
	</g>
</g><g>
	<g>
		<path d="M158.122,79.815c-3.905-3.903-10.237-3.903-14.142,0.002l-12.646,12.646l-6.606-2.701    c-5.111-2.088-10.951,0.36-13.041,5.472c-2.09,5.112,0.36,10.951,5.472,13.04l12.76,5.217c1.225,0.5,2.509,0.744,3.782,0.744    c2.602,0,5.161-1.017,7.073-2.929l17.348-17.348C162.027,90.053,162.027,83.721,158.122,79.815z" data-original="#000000" class="active-path" data-old_color="#000000" fill="#DE3C4B"/>
	</g>
</g><g>
	<g>
		<path d="M366.97,206.48c-0.13-0.64-0.32-1.27-0.57-1.88c-0.25-0.6-0.56-1.18-0.92-1.72c-0.37-0.55-0.79-1.06-1.25-1.52    c-0.46-0.46-0.97-0.88-1.52-1.25c-0.54-0.36-1.12-0.66-1.72-0.91c-0.61-0.25-1.24-0.45-1.87-0.58c-1.29-0.25-2.62-0.25-3.91,0    c-0.64,0.13-1.27,0.33-1.87,0.58c-0.61,0.25-1.19,0.55-1.73,0.91c-0.55,0.37-1.06,0.79-1.52,1.25c-0.46,0.46-0.88,0.97-1.24,1.52    c-0.36,0.54-0.67,1.12-0.92,1.72c-0.25,0.61-0.44,1.24-0.57,1.88c-0.13,0.64-0.2,1.3-0.2,1.95c0,0.65,0.07,1.31,0.2,1.95    s0.32,1.27,0.57,1.87c0.25,0.61,0.56,1.19,0.92,1.73c0.36,0.55,0.78,1.06,1.24,1.52c0.46,0.46,0.97,0.88,1.52,1.24    c0.54,0.36,1.12,0.67,1.73,0.92c0.6,0.25,1.23,0.44,1.87,0.57s1.3,0.2,1.95,0.2c0.65,0,1.31-0.07,1.96-0.2    c0.63-0.13,1.26-0.32,1.87-0.57c0.6-0.25,1.18-0.56,1.72-0.92c0.55-0.36,1.06-0.78,1.52-1.24c0.46-0.46,0.88-0.97,1.25-1.52    c0.36-0.54,0.67-1.12,0.92-1.73c0.25-0.6,0.44-1.23,0.57-1.87s0.19-1.3,0.19-1.95C367.16,207.78,367.1,207.12,366.97,206.48z" data-original="#000000" class="active-path" data-old_color="#000000" fill="#DE3C4B"/>
	</g>
</g><g>
	<g>
		<path d="M320.83,198.429H219.773c-5.523,0-10,4.477-10,10c0,5.523,4.477,10,10,10H320.83c5.523,0,10-4.477,10-10    C330.83,202.906,326.353,198.429,320.83,198.429z" data-original="#000000" class="active-path" data-old_color="#000000" fill="#DE3C4B"/>
	</g>
</g><g>
	<g>
		<path d="M226.84,242.501c-2.32-2.32-5.77-3.39-9.02-2.73c-0.64,0.12-1.27,0.32-1.87,0.57s-1.19,0.56-1.73,0.92    c-0.55,0.36-1.06,0.78-1.52,1.24c-1.86,1.86-2.93,4.44-2.93,7.07c0,0.65,0.07,1.31,0.2,1.95c0.13,0.639,0.32,1.269,0.57,1.879    c0.25,0.6,0.56,1.18,0.92,1.72c0.36,0.55,0.78,1.06,1.24,1.52c0.46,0.461,0.97,0.88,1.52,1.25c0.54,0.36,1.13,0.671,1.73,0.921    s1.23,0.44,1.87,0.57s1.3,0.19,1.95,0.19c2.64,0,5.21-1.07,7.07-2.93c0.46-0.46,0.88-0.97,1.25-1.52    c0.36-0.54,0.67-1.12,0.92-1.72c0.25-0.61,0.44-1.24,0.57-1.88c0.13-0.64,0.19-1.3,0.19-1.95    C229.77,246.941,228.71,244.361,226.84,242.501z" data-original="#000000" class="active-path" data-old_color="#000000" fill="#DE3C4B"/>
	</g>
</g><g>
	<g>
		<path d="M357.163,239.571H256.106c-5.523,0-10,4.477-10,10s4.477,10,10,10h101.057c5.523,0,10-4.477,10-10    S362.686,239.571,357.163,239.571z" data-original="#000000" class="active-path" data-old_color="#000000" fill="#DE3C4B"/>
	</g>
</g><g>
	<g>
		<path d="M135.998,174.99c-29.781,0-54.01,24.229-54.01,54.01s24.229,54.01,54.01,54.01c29.781,0,54.01-24.229,54.01-54.01    C190.007,199.219,165.779,174.99,135.998,174.99z M135.998,263.01c-18.754,0-34.01-15.257-34.01-34.01s15.257-34.01,34.01-34.01    c18.753,0,34.01,15.257,34.01,34.01S154.751,263.01,135.998,263.01z" data-original="#000000" class="active-path" data-old_color="#000000" fill="#DE3C4B"/>
	</g>
</g><g>
	<g>
		<path d="M158.122,213.253c-3.905-3.903-10.237-3.903-14.142,0.002l-12.646,12.646l-6.606-2.701    c-5.111-2.088-10.951,0.36-13.041,5.472c-2.09,5.112,0.36,10.951,5.472,13.04l12.76,5.217c1.225,0.5,2.509,0.744,3.782,0.744    c2.602,0,5.161-1.017,7.073-2.929l17.348-17.348C162.027,223.491,162.027,217.159,158.122,213.253z" data-original="#000000" class="active-path" data-old_color="#000000" fill="#DE3C4B"/>
	</g>
</g><g>
	<g>
		<path d="M229.58,381.06c-0.13-0.64-0.32-1.27-0.57-1.88c-0.25-0.6-0.56-1.18-0.92-1.72c-0.37-0.55-0.79-1.06-1.25-1.52    c-0.46-0.46-0.97-0.88-1.52-1.25c-0.54-0.36-1.12-0.66-1.72-0.91c-0.61-0.25-1.24-0.45-1.87-0.57c-1.29-0.26-2.62-0.26-3.91,0    c-0.64,0.12-1.27,0.32-1.87,0.57c-0.6,0.25-1.19,0.55-1.73,0.91c-0.55,0.37-1.06,0.79-1.52,1.25c-0.46,0.46-0.88,0.97-1.24,1.52    c-0.36,0.54-0.67,1.12-0.92,1.72c-0.25,0.61-0.44,1.24-0.57,1.88s-0.2,1.3-0.2,1.95c0,2.63,1.07,5.21,2.93,7.07    c0.46,0.46,0.97,0.88,1.52,1.24c0.54,0.36,1.13,0.67,1.73,0.92c0.6,0.25,1.23,0.44,1.87,0.57c0.64,0.13,1.3,0.2,1.95,0.2    c2.64,0,5.21-1.07,7.07-2.93c1.87-1.86,2.93-4.441,2.93-7.07C229.77,382.36,229.71,381.7,229.58,381.06z" data-original="#000000" class="active-path" data-old_color="#000000" fill="#DE3C4B"/>
	</g>
</g><g>
	<g>
		<path d="M135.998,308.428c-29.781,0-54.01,24.229-54.01,54.01s24.229,54.01,54.01,54.01c29.781,0,54.01-24.229,54.01-54.01    C190.007,332.657,165.779,308.428,135.998,308.428z M135.998,396.448c-18.754,0-34.01-15.257-34.01-34.01    s15.257-34.01,34.01-34.01c18.753,0,34.01,15.257,34.01,34.01C170.007,381.191,154.751,396.448,135.998,396.448z" data-original="#000000" class="active-path" data-old_color="#000000" fill="#DE3C4B"/>
	</g>
</g><g>
	<g>
		<path d="M158.122,346.693c-3.905-3.905-10.237-3.905-14.142,0l-12.646,12.647l-6.606-2.701c-5.111-2.089-10.95,0.36-13.041,5.472    c-2.09,5.112,0.36,10.951,5.472,13.041l12.76,5.216c1.225,0.501,2.509,0.744,3.782,0.744c2.602,0,5.161-1.017,7.073-2.929    l17.348-17.348C162.027,356.93,162.027,350.598,158.122,346.693z" data-original="#000000" class="active-path" data-old_color="#000000" fill="#DE3C4B"/>
	</g>
</g></g> </svg>
