<?xml version="1.0"?>
<svg xmlns="http://www.w3.org/2000/svg" id="Capa_1" enable-background="new 0 0 512.002 512.002" height="512px" viewBox="0 0 512.002 512.002" width="512px" class=""><g><g id="XMLID_1201_"><g id="XMLID_1801_"><g id="XMLID_832_"><path id="XMLID_833_" d="m476.879 309.269-32.461-105.689c-.387-53.632-21.291-104.147-58.962-142.396-37.983-38.565-88.681-60.285-142.756-61.158-38.475-.61-76.052 9.368-108.742 28.887-4.741 2.831-6.29 8.971-3.459 13.713 2.831 4.741 8.97 6.29 13.713 3.459 29.494-17.609 63.456-26.629 98.166-26.061 100.381 1.62 182.047 84.645 182.047 185.073 0 .995.148 1.984.44 2.936l32.871 107.028h-44.854c-5.522 0-10 4.478-10 10v55.217c0 26.313-21.407 47.721-47.721 47.721h-76.375c-23.775 0-46.129-9.259-62.94-26.071-3.906-3.904-10.236-3.904-14.143 0-3.905 3.905-3.905 10.237 0 14.143 19.897 19.897 46.13 31.153 74.149 31.888l-14.691 51.287c-1.521 5.31 1.55 10.847 6.859 12.367.921.264 1.847.39 2.759.39 4.349 0 8.352-2.86 9.608-7.249l16.257-56.754h58.516c37.341 0 67.721-30.379 67.721-67.721v-45.217h34.938c6.393 0 12.237-2.948 16.036-8.09 3.799-5.141 4.901-11.594 3.024-17.703z" data-original="#000000" class="active-path" data-old_color="#000000" fill="#DE3C4B"/><path id="XMLID_834_" d="m54.254 201.873c.586-34.546 10.641-68.018 29.076-96.799 2.979-4.65 1.623-10.835-3.027-13.814-4.649-2.977-10.835-1.622-13.814 3.027-20.437 31.905-31.582 68.99-32.231 107.246-.659 38.792 9.423 82.082 27.66 118.771 17.535 35.274 22.222 75.311 13.197 112.735l-16.062 66.615c-1.294 5.368 2.009 10.771 7.378 12.065.787.189 1.576.28 2.352.28 4.514 0 8.609-3.077 9.714-7.658l16.063-66.615c10.124-41.985 4.893-86.849-14.73-126.325-16.862-33.913-26.182-73.835-25.576-109.528z" data-original="#000000" class="active-path" data-old_color="#000000" fill="#DE3C4B"/><path id="XMLID_835_" d="m96.303 71.946c1.951 1.951 4.508 2.927 7.064 2.927 2.56 0 5.119-.979 7.073-2.932 3.905-3.905 3.9-10.242-.005-14.147-3.906-3.904-10.236-3.904-14.143 0-3.905 3.905-3.905 10.237 0 14.143z" data-original="#000000" class="active-path" data-old_color="#000000" fill="#DE3C4B"/><path id="XMLID_861_" d="m244.505 260.512c2.652 0 5.195-1.054 7.071-2.929l64.87-64.87 11.167 11.168c2.63 2.63 6.504 3.585 10.053 2.474 3.551-1.108 6.191-4.097 6.857-7.756l15.132-83.216c.587-3.229-.447-6.54-2.768-8.86s-5.633-3.356-8.86-2.768l-83.215 15.132c-3.659.666-6.647 3.307-7.756 6.857s-.156 7.422 2.474 10.053l11.168 11.168-26.193 26.191-41.749-41.75c-1.875-1.875-4.419-2.929-7.071-2.929s-5.195 1.054-7.071 2.929l-92.32 92.32c-3.905 3.905-3.905 10.237 0 14.143l31.606 31.606c1.953 1.952 4.512 2.929 7.071 2.929s5.118-.977 7.071-2.929l53.643-53.643 41.749 41.75c1.876 1.876 4.419 2.93 7.071 2.93zm-48.82-68.822c-2.652 0-5.195 1.054-7.071 2.929l-53.643 53.643-17.464-17.464 78.178-78.178 41.749 41.75c3.906 3.904 10.236 3.905 14.143 0l40.335-40.334c3.905-3.905 3.905-10.237 0-14.143l-4.744-4.744 50.227-9.133-9.133 50.226-4.743-4.743c-1.875-1.875-4.419-2.929-7.071-2.929s-5.195 1.054-7.071 2.929l-64.87 64.87-41.749-41.75c-1.877-1.875-4.421-2.929-7.073-2.929z" data-original="#000000" class="active-path" data-old_color="#000000" fill="#DE3C4B"/></g></g></g></g> </svg>
