<svg xmlns="http://www.w3.org/2000/svg" width="443.547" height="512.003" viewBox="0 0 443.547 512.003"><g transform="translate(-34.228)"><path d="M476.879,309.269,444.418,203.58A205.383,205.383,0,0,0,133.958,28.913a10,10,0,0,0,10.254,17.172,185.414,185.414,0,0,1,98.166-26.061c100.381,1.62,182.047,84.645,182.047,185.073a10.01,10.01,0,0,0,.44,2.936l32.871,107.028H412.882a10,10,0,0,0-10,10v55.217A47.775,47.775,0,0,1,355.161,428H278.786a88.427,88.427,0,0,1-62.94-26.071A10,10,0,1,0,201.7,416.071a108.248,108.248,0,0,0,74.149,31.888l-14.691,51.287a10,10,0,1,0,19.226,5.508L296.644,448H355.16a67.8,67.8,0,0,0,67.721-67.721V335.062h34.938a19.939,19.939,0,0,0,19.06-25.793Z" fill="#2bc48a"/><path d="M54.254,201.873a185.1,185.1,0,0,1,29.076-96.8A10,10,0,1,0,66.489,94.287,205.072,205.072,0,0,0,34.258,201.533c-.659,38.792,9.423,82.082,27.66,118.771,17.535,35.274,22.222,75.311,13.2,112.735L59.053,499.654A10,10,0,1,0,78.5,504.341L94.56,437.726c10.124-41.985,4.893-86.849-14.73-126.325C62.968,277.488,53.648,237.566,54.254,201.873Z" fill="#2bc48a"/><path d="M96.3,71.946a9.143,9.143,0,1,0-.011-.009Z" fill="#2bc48a"/><path d="M244.505,260.512a10,10,0,0,0,7.071-2.929l64.87-64.87,11.167,11.168a10,10,0,0,0,16.91-5.282l15.132-83.216a10,10,0,0,0-11.628-11.628l-83.215,15.132a10,10,0,0,0-5.282,16.91L270.7,146.965l-26.193,26.191-41.749-41.75a10,10,0,0,0-14.142,0l-92.32,92.32a10,10,0,0,0,0,14.143L127.9,269.475a10,10,0,0,0,14.142,0l53.643-53.643,41.749,41.75a10,10,0,0,0,7.071,2.93Zm-48.82-68.822a10,10,0,0,0-7.071,2.929l-53.643,53.643L117.507,230.8l78.178-78.178,41.749,41.75a10,10,0,0,0,14.143,0l40.335-40.334a10,10,0,0,0,0-14.143l-4.744-4.744,50.227-9.133-9.133,50.226-4.743-4.743a10,10,0,0,0-14.142,0l-64.87,64.87-41.749-41.75a10.009,10.009,0,0,0-7.073-2.929Z" fill="#2bc48a"/></g></svg>