<svg xmlns="http://www.w3.org/2000/svg" width="105.49" height="105.489" viewBox="0 0 105.49 105.489"><g transform="translate(-11.261 -11.25)"><path d="M116.681,26.982a1.748,1.748,0,0,0-1.3-1.22l-10.725-2.423-2.423-10.725a1.749,1.749,0,0,0-2.944-.851L86.954,24.1A49.908,49.908,0,1,0,103.9,41.046l12.34-12.34a1.751,1.751,0,0,0,.441-1.724Zm-9.106,39.855A46.406,46.406,0,1,1,84.4,26.658l-5.665,5.665a1.735,1.735,0,0,0-.135.175A38.564,38.564,0,1,0,95.494,49.415a1.725,1.725,0,0,0,.183-.149l5.665-5.665a46.25,46.25,0,0,1,6.233,23.236ZM91.341,49.123A34.963,34.963,0,1,1,78.874,36.644l1.843,8.164-1.768,1.768a27.028,27.028,0,1,0,2.475,2.475l1.768-1.768ZM68.688,66.837a7.553,7.553,0,1,1-3.6-6.4L59.925,65.6A1.75,1.75,0,1,0,62.4,68.074l5.168-5.168A7.467,7.467,0,0,1,68.688,66.837Zm-1.076-8.924a11.07,11.07,0,1,0,2.474,2.475l8.858-8.858a23.511,23.511,0,1,1-2.474-2.475Zm32.844-18.376L93.888,46.1l-.985-.222-.038-.009L84.1,43.9l-2.209-9.783L99.523,16.482l1.967,8.706a1.751,1.751,0,0,0,1.322,1.322l8.706,1.967Z" fill="#2bc48a"/></g></svg>